<?xml version="1.0" encoding="utf-8"?>
<!-- Generator: Adobe Illustrator 23.0.1, SVG Export Plug-In . SVG Version: 6.00 Build 0)  -->
<svg version="1.1" id="Layer_1" xmlns="http://www.w3.org/2000/svg" xmlns:xlink="http://www.w3.org/1999/xlink" x="0px" y="0px"
	 viewBox="0 0 512 512" style="enable-background:new 0 0 512 512;" xml:space="preserve">
<style type="text/css">
	.st0{fill:#FFFFFF;}
</style>
<path class="st0" d="M512,256c0,9.1-7.4,16.5-16.5,16.5h-24.8c-9.1,0-16.5-7.4-16.5-16.5c0-9.1,7.4-16.5,16.5-16.5h24.8
	C504.6,239.5,512,246.9,512,256z M256,57.8c9.1,0,16.5-7.4,16.5-16.5V16.5C272.5,7.4,265.1,0,256,0s-16.5,7.4-16.5,16.5v24.8
	C239.5,50.4,246.9,57.8,256,57.8z M419.3,115.9l17.6-17.6c6.5-6.4,6.5-16.9,0-23.4c-6.4-6.5-16.9-6.5-23.4,0l-17.6,17.6
	c-6.5,6.4-6.5,16.9,0,23.4C402.4,122.3,412.8,122.3,419.3,115.9z M92.3,116c3.2,3.2,7.4,4.8,11.7,4.8c14.6,0,22.1-17.8,11.7-28.2
	L98.1,75c-6.5-6.4-16.9-6.4-23.4,0c-6.4,6.5-6.4,16.9,0,23.4L92.3,116z M41.3,240.5H16.5C7.4,240.5,0,247.9,0,257
	c0,9.1,7.4,16.5,16.5,16.5h24.8c9.1,0,16.5-7.4,16.5-16.5C57.8,247.9,50.4,240.5,41.3,240.5z M419.7,396.7c-6.5-6.4-16.9-6.4-23.4,0
	c-6.4,6.5-6.4,16.9,0,23.4l17.6,17.6c6.4,6.4,16.9,6.4,23.4,0c6.4-6.5,6.4-16.9,0-23.4L419.7,396.7z M256,454.2
	c-9.1,0-16.5,7.4-16.5,16.5v24.8c0,9.1,7.4,16.5,16.5,16.5c9.1,0,16.5-7.4,16.5-16.5v-24.8C272.5,461.6,265.1,454.2,256,454.2
	L256,454.2z M92.2,396.6l-17.6,17.6c-10.4,10.4-2.9,28.2,11.7,28.2c4.2,0,8.5-1.6,11.7-4.8l17.6-17.6c6.5-6.4,6.5-16.9,0-23.4
	C109.1,390.1,98.7,390.1,92.2,396.6L92.2,396.6z M256.5,79.5c-97.6,0-177,79.4-177,177s79.4,177,177,177s177-79.4,177-177
	S354.1,79.5,256.5,79.5L256.5,79.5z"/>
</svg>
