<?xml version="1.0" encoding="utf-8"?>
<!-- Generator: Adobe Illustrator 23.0.1, SVG Export Plug-In . SVG Version: 6.00 Build 0)  -->
<svg version="1.1" id="Capa_1" xmlns="http://www.w3.org/2000/svg" xmlns:xlink="http://www.w3.org/1999/xlink" x="0px" y="0px"
	 viewBox="0 0 512 512" style="enable-background:new 0 0 512 512;" xml:space="preserve">
<style type="text/css">
	.st0{fill:#FFFFFF;}
</style>
<g>
	<g>
		<path class="st0" d="M378.8,368.4c3.5-11.9,5.4-24.3,5.4-36.7c0-70.7-57.5-128.2-128.2-128.2S127.8,261,127.8,331.7
			c0,12.4,1.8,24.9,5.4,36.7H0v30h512v-30H378.8z"/>
	</g>
</g>
<g>
	<g>
		<rect x="241" y="113.6" class="st0" width="30" height="60"/>
	</g>
</g>
<g>
	<g>
		
			<rect x="320.1" y="153.8" transform="matrix(0.5004 -0.8658 0.8658 0.5004 28.762 387.4688)" class="st0" width="60" height="30"/>
	</g>
</g>
<g>
	<g>
		
			<rect x="389" y="222.7" transform="matrix(0.8664 -0.4993 0.4993 0.8664 -62.7423 240.9532)" class="st0" width="60" height="30"/>
	</g>
</g>
<g>
	<g>
		
			<rect x="429.1" y="301.9" transform="matrix(1.199999e-03 -1 1 1.199999e-03 111.6977 775.6286)" class="st0" width="30" height="60"/>
	</g>
</g>
<g>
	<g>
		
			<rect x="146" y="138.8" transform="matrix(0.8658 -0.5003 0.5003 0.8658 -62.8521 103.1929)" class="st0" width="30" height="60"/>
	</g>
</g>
<g>
	<g>
		
			<rect x="77.1" y="207.7" transform="matrix(0.4993 -0.8664 0.8664 0.4993 -159.8601 198.856)" class="st0" width="30" height="60"/>
	</g>
</g>
<g>
	<g>
		
			<rect x="37" y="316.9" transform="matrix(1 -1.199999e-03 1.199999e-03 1 -0.3983 8.063881e-02)" class="st0" width="60" height="30"/>
	</g>
</g>
</svg>
